<svg viewBox="0 0 458 118" xmlns="http://www.w3.org/2000/svg" fill="#FFFFFF">
  <g>
    <path d="M12.04,84.92l5.6-6.42c5.29,5.49,12.64,9.11,20.28,9.11c9.65,0,15.36-4.8,15.36-11.95c0-7.51-5.32-9.9-12.26-12.93l-10.56-4.66c-6.85-2.92-14.88-8.12-14.88-18.92c0-11.23,9.78-19.51,23.14-19.51c8.71,0,16.48,3.77,21.64,9.11l-4.96,6.01c-4.5-4.25-9.89-6.89-16.68-6.89c-8.24,0-13.7,4.16-13.7,10.73c0,7.08,6.41,9.73,12.17,12.16l10.47,4.53c8.5,3.65,15.14,8.72,15.14,19.65c0,11.61-9.59,20.89-25.05,20.89C27.44,95.83,18.47,91.62,12.04,84.92z"/>
    <path d="M74.63,22.91c0-3.62,2.78-5.95,6.36-5.95c3.58,0,6.36,2.33,6.36,5.95c0,3.48-2.78,5.95-6.36,5.95C77.41,28.86,74.63,26.39,74.63,22.91z M76.31,40.05h9.21v54.44h-9.21V40.05z"/>
    <path d="M103.86,40.05h7.61l0.78,7.89h0.31c4.76-5.15,10.46-9.24,16.94-9.24c8.32,0,12.78,3.99,15.03,10.38c5.65-6.12,11.33-10.38,17.95-10.38c11.19,0,16.56,7.4,16.56,21.29v34.49h-9.21v-33.3c0-10.14-3.21-14.48-10.13-14.48c-4.22,0-8.61,2.76-13.64,8.36v39.42h-9.21v-33.3c0-10.14-3.21-14.48-10.13-14.48c-4.08,0-8.61,2.76-13.64,8.36v39.42h-9.21V40.05z"/>
    <path d="M196.7,40.05h7.61l0.78,6.28h0.31c4.92-4.09,11.05-7.63,17.35-7.63c14.06,0,21.58,10.92,21.58,27.74c0,18.55-11.14,29.39-23.58,29.39c-4.99,0-10.09-2.3-15.09-6.31l0.25,9.5v18.43h-9.21V40.05z M234.81,66.53c0-12.01-4.1-20.07-14.35-20.07c-4.61,0-9.26,2.54-14.55,7.43v28.53c4.93,4.14,9.66,5.66,13.25,5.66C228.18,88.08,234.81,79.97,234.81,66.53z"/>
    <path d="M258.41,83.56V14.71h9.21v69.52c0,2.82,1.23,3.94,2.57,3.94c0.53,0,0.98,0,2.02-0.22l1.25,7.03c-1.31,0.47-2.89,0.86-5.3,0.86C261.25,95.83,258.41,91.43,258.41,83.56z"/>
    <path d="M282.92,67.34c0-17.72,11.94-28.63,24.47-28.63c13.88,0,21.72,9.97,21.72,25.54c0,1.94-0.16,3.89-0.43,5.23h-36.66c0.66,11.53,7.71,19.01,18.09,19.01c5.22,0,9.51-1.69,13.55-4.35l3.3,6.04c-4.77,3.12-10.57,5.65-17.97,5.65C294.47,95.83,282.92,85.22,282.92,67.34z M320.97,62.89c0-10.91-4.91-16.84-13.42-16.84c-7.65,0-14.49,6.14-15.61,16.84H320.97z"/>
    <path fill="#45BDD1" d="M339.1,57.8c0-23.7,14.25-38.16,33.74-38.16c10.18,0,16.89,4.62,21.19,9.06l-5.12,6.09c-3.73-3.84-8.44-6.93-15.82-6.93c-14.81,0-24.32,11.38-24.32,29.69c0,18.47,8.74,30.05,24.42,30.05c5.27,0,10.34-1.58,13.24-4.32V64.16h-15.56v-7.75h24.09V87.3c-4.73,4.93-12.78,8.53-22.65,8.53C352.9,95.83,339.1,81.67,339.1,57.8z"/>
    <path fill="#45BDD1" d="M407.56,67.34c0-18.17,11.88-28.63,25.22-28.63c13.34,0,25.22,10.47,25.22,28.63c0,18.02-11.88,28.49-25.22,28.49C419.44,95.83,407.56,85.37,407.56,67.34z M448.49,67.34c0-12.47-6.34-20.96-15.71-20.96c-9.36,0-15.71,8.49-15.71,20.96c0,12.47,6.34,20.82,15.71,20.82C442.15,88.16,448.49,79.82,448.49,67.34z"/>
    <circle fill="#41BCCF" cx="80.72" cy="23.8" r="7.59"/>
  </g>
</svg>
